<svg width="115" height="113" viewBox="0 0 115 113" fill="none" xmlns="http://www.w3.org/2000/svg">
<path d="M25.737 0C18.7117 0 13 5.69878 13 12.7081V25.4161C13 32.4254 18.7117 38.1242 25.737 38.1242H102.159C109.184 38.1242 114.896 32.4254 114.896 25.4161V12.7081C114.896 5.69878 109.184 0 102.159 0H25.737ZM81.4611 14.2966C82.7279 14.2966 83.9428 14.7987 84.8385 15.6924C85.7343 16.5861 86.2375 17.7982 86.2375 19.0621C86.2375 20.326 85.7343 21.5381 84.8385 22.4319C83.9428 23.3256 82.7279 23.8276 81.4611 23.8276C80.1944 23.8276 78.9795 23.3256 78.0837 22.4319C77.188 21.5381 76.6848 20.326 76.6848 19.0621C76.6848 17.7982 77.188 16.5861 78.0837 15.6924C78.9795 14.7987 80.1944 14.2966 81.4611 14.2966ZM91.0139 19.0621C91.0139 17.7982 91.5171 16.5861 92.4128 15.6924C93.3086 14.7987 94.5234 14.2966 95.7902 14.2966C97.057 14.2966 98.2719 14.7987 99.1676 15.6924C100.063 16.5861 100.567 17.7982 100.567 19.0621C100.567 20.326 100.063 21.5381 99.1676 22.4319C98.2719 23.3256 97.057 23.8276 95.7902 23.8276C94.5234 23.8276 93.3086 23.3256 92.4128 22.4319C91.5171 21.5381 91.0139 20.326 91.0139 19.0621ZM25.737 50.8323C18.7117 50.8323 13 56.5311 13 63.5404V76.2484C13 83.2577 18.7117 88.9565 25.737 88.9565H102.159C109.184 88.9565 114.896 83.2577 114.896 76.2484V63.5404C114.896 56.5311 109.184 50.8323 102.159 50.8323H25.737ZM81.4611 65.1289C82.7279 65.1289 83.9428 65.631 84.8385 66.5247C85.7343 67.4184 86.2375 68.6305 86.2375 69.8944C86.2375 71.1583 85.7343 72.3704 84.8385 73.2641C83.9428 74.1579 82.7279 74.6599 81.4611 74.6599C80.1944 74.6599 78.9795 74.1579 78.0837 73.2641C77.188 72.3704 76.6848 71.1583 76.6848 69.8944C76.6848 68.6305 77.188 67.4184 78.0837 66.5247C78.9795 65.631 80.1944 65.1289 81.4611 65.1289ZM92.606 69.8944C92.606 68.6305 93.1092 67.4184 94.0049 66.5247C94.9007 65.631 96.1156 65.1289 97.3823 65.1289C98.6491 65.1289 99.864 65.631 100.76 66.5247C101.655 67.4184 102.159 68.6305 102.159 69.8944C102.159 71.1583 101.655 72.3704 100.76 73.2641C99.864 74.1579 98.6491 74.6599 97.3823 74.6599C96.1156 74.6599 94.9007 74.1579 94.0049 73.2641C93.1092 72.3704 92.606 71.1583 92.606 69.8944Z" fill="black"/>
<path d="M13.4999 16.7515C13.4999 10.0194 18.9867 4.54346 25.7369 4.54346H102.159C108.909 4.54346 114.396 10.0194 114.396 16.7515V29.4596C114.396 36.1917 108.909 41.6677 102.159 41.6677H25.7369C18.9867 41.6677 13.4999 36.1917 13.4999 29.4596V16.7515ZM85.1916 19.3819C84.202 18.3945 82.8601 17.84 81.4611 17.84C80.0621 17.84 78.7201 18.3945 77.7305 19.3819C76.7409 20.3693 76.1847 21.7087 76.1847 23.1056C76.1847 24.5024 76.7409 25.8419 77.7305 26.8293C78.7201 27.8166 80.0621 28.3711 81.4611 28.3711C82.8601 28.3711 84.202 27.8166 85.1916 26.8293C86.1813 25.8419 86.7374 24.5024 86.7374 23.1056C86.7374 21.7087 86.1813 20.3693 85.1916 19.3819ZM92.0596 19.3819C91.07 20.3693 90.5138 21.7087 90.5138 23.1056C90.5138 24.5024 91.07 25.8419 92.0596 26.8293C93.0492 27.8166 94.3911 28.3711 95.7902 28.3711C97.1892 28.3711 98.5311 27.8166 99.5207 26.8293C100.51 25.8419 101.067 24.5024 101.067 23.1056C101.067 21.7087 100.51 20.3693 99.5207 19.3819C98.5311 18.3945 97.1892 17.84 95.7902 17.84C94.3911 17.84 93.0492 18.3945 92.0596 19.3819ZM13.4999 67.5838C13.4999 60.8517 18.9867 55.3758 25.7369 55.3758H102.159C108.909 55.3758 114.396 60.8517 114.396 67.5838V80.2919C114.396 87.024 108.909 92.5 102.159 92.5H25.7369C18.9867 92.5 13.4999 87.024 13.4999 80.2919V67.5838ZM85.1916 70.2142C84.202 69.2268 82.8601 68.6723 81.4611 68.6723C80.0621 68.6723 78.7201 69.2268 77.7305 70.2142C76.7409 71.2016 76.1847 72.541 76.1847 73.9379C76.1847 75.3347 76.7409 76.6742 77.7305 77.6616C78.7201 78.6489 80.0621 79.2034 81.4611 79.2034C82.8601 79.2034 84.202 78.6489 85.1916 77.6616C86.1813 76.6742 86.7374 75.3347 86.7374 73.9379C86.7374 72.541 86.1813 71.2016 85.1916 70.2142ZM93.6517 70.2142C92.6621 71.2016 92.1059 72.541 92.1059 73.9379C92.1059 75.3347 92.6621 76.6742 93.6517 77.6616C94.6413 78.6489 95.9833 79.2034 97.3823 79.2034C98.7813 79.2034 100.123 78.6489 101.113 77.6616C102.102 76.6742 102.659 75.3347 102.659 73.9379C102.659 72.541 102.102 71.2016 101.113 70.2142C100.123 69.2268 98.7813 68.6723 97.3823 68.6723C95.9833 68.6723 94.6413 69.2268 93.6517 70.2142Z" fill="url(#paint0_linear_0_48)" stroke="url(#paint1_linear_0_48)"/>
<g filter="url(#filter0_b_0_48)">
<path d="M25.737 0C18.7117 0 13 5.69878 13 12.7081V25.4161C13 32.4254 18.7117 38.1242 25.737 38.1242H102.159C109.184 38.1242 114.896 32.4254 114.896 25.4161V12.7081C114.896 5.69878 109.184 0 102.159 0H25.737ZM81.4611 14.2966C82.7279 14.2966 83.9428 14.7987 84.8385 15.6924C85.7343 16.5861 86.2375 17.7982 86.2375 19.0621C86.2375 20.326 85.7343 21.5381 84.8385 22.4319C83.9428 23.3256 82.7279 23.8276 81.4611 23.8276C80.1944 23.8276 78.9795 23.3256 78.0837 22.4319C77.188 21.5381 76.6848 20.326 76.6848 19.0621C76.6848 17.7982 77.188 16.5861 78.0837 15.6924C78.9795 14.7987 80.1944 14.2966 81.4611 14.2966ZM91.0139 19.0621C91.0139 17.7982 91.5171 16.5861 92.4128 15.6924C93.3086 14.7987 94.5234 14.2966 95.7902 14.2966C97.057 14.2966 98.2719 14.7987 99.1676 15.6924C100.063 16.5861 100.567 17.7982 100.567 19.0621C100.567 20.326 100.063 21.5381 99.1676 22.4319C98.2719 23.3256 97.057 23.8276 95.7902 23.8276C94.5234 23.8276 93.3086 23.3256 92.4128 22.4319C91.5171 21.5381 91.0139 20.326 91.0139 19.0621ZM25.737 50.8323C18.7117 50.8323 13 56.5311 13 63.5404V76.2484C13 83.2577 18.7117 88.9565 25.737 88.9565H102.159C109.184 88.9565 114.896 83.2577 114.896 76.2484V63.5404C114.896 56.5311 109.184 50.8323 102.159 50.8323H25.737ZM81.4611 65.1289C82.7279 65.1289 83.9428 65.631 84.8385 66.5247C85.7343 67.4184 86.2375 68.6305 86.2375 69.8944C86.2375 71.1583 85.7343 72.3704 84.8385 73.2641C83.9428 74.1579 82.7279 74.6599 81.4611 74.6599C80.1944 74.6599 78.9795 74.1579 78.0837 73.2641C77.188 72.3704 76.6848 71.1583 76.6848 69.8944C76.6848 68.6305 77.188 67.4184 78.0837 66.5247C78.9795 65.631 80.1944 65.1289 81.4611 65.1289ZM92.606 69.8944C92.606 68.6305 93.1092 67.4184 94.0049 66.5247C94.9007 65.631 96.1156 65.1289 97.3823 65.1289C98.6491 65.1289 99.864 65.631 100.76 66.5247C101.655 67.4184 102.159 68.6305 102.159 69.8944C102.159 71.1583 101.655 72.3704 100.76 73.2641C99.864 74.1579 98.6491 74.6599 97.3823 74.6599C96.1156 74.6599 94.9007 74.1579 94.0049 73.2641C93.1092 72.3704 92.606 71.1583 92.606 69.8944Z" fill="#0B2F45" fill-opacity="0.55"/>
</g>
<circle cx="80.9304" cy="19.4087" r="5.96957" fill="url(#paint2_linear_0_48)" stroke="url(#paint3_linear_0_48)"/>
<circle cx="96.2956" cy="19.4087" r="5.96957" fill="url(#paint4_linear_0_48)" stroke="url(#paint5_linear_0_48)"/>
<circle cx="80.9304" cy="69.5478" r="5.96957" fill="url(#paint6_linear_0_48)" stroke="url(#paint7_linear_0_48)"/>
<circle cx="96.2956" cy="69.5478" r="5.96957" fill="url(#paint8_linear_0_48)" stroke="url(#paint9_linear_0_48)"/>
<path d="M30.4239 82.7541L30.4241 82.7543C30.5245 82.913 30.5251 83.1012 30.427 83.2588L30.4267 83.2592L12.4465 112.211C12.343 112.378 12.1344 112.5 11.8864 112.5H8.80048C8.58184 112.5 8.39051 112.404 8.27797 112.264C8.16858 112.128 8.14189 111.962 8.19264 111.813L14.4265 93.5111L14.6517 92.8499H13.9532H1.13293C0.909721 92.8499 0.715095 92.75 0.603872 92.6058L0.603817 92.6057C0.495495 92.4654 0.473122 92.296 0.531312 92.145L0.531356 92.1448L11.4135 63.8724L11.4135 63.8724C11.4914 63.6699 11.7199 63.5 12.015 63.5H25.2501C25.4823 63.5 25.6816 63.6073 25.7908 63.7602C25.8967 63.9087 25.9104 64.0853 25.837 64.2388L25.8366 64.2396L17.5048 81.7552L17.1648 82.47H17.9563H29.8672C30.113 82.47 30.3205 82.5905 30.4239 82.7541Z" fill="url(#paint10_linear_0_48)" stroke="url(#paint11_linear_0_48)"/>
<defs>
<filter id="filter0_b_0_48" x="-12" y="-25" width="151.896" height="138.957" filterUnits="userSpaceOnUse" color-interpolation-filters="sRGB">
<feFlood flood-opacity="0" result="BackgroundImageFix"/>
<feGaussianBlur in="BackgroundImageFix" stdDeviation="12.5"/>
<feComposite in2="SourceAlpha" operator="in" result="effect1_backgroundBlur_0_48"/>
<feBlend mode="normal" in="SourceGraphic" in2="effect1_backgroundBlur_0_48" result="shape"/>
</filter>
<linearGradient id="paint0_linear_0_48" x1="63.9478" y1="4.04346" x2="63.9478" y2="93" gradientUnits="userSpaceOnUse">
<stop stop-color="#4DBBFF"/>
<stop offset="1" stop-color="#004B78"/>
</linearGradient>
<linearGradient id="paint1_linear_0_48" x1="63.9478" y1="4.04346" x2="63.9478" y2="93" gradientUnits="userSpaceOnUse">
<stop stop-color="#009EFF"/>
<stop offset="1" stop-color="#E7F6FF" stop-opacity="0.25"/>
</linearGradient>
<linearGradient id="paint2_linear_0_48" x1="87.3999" y1="25.8783" x2="80.9304" y2="25.8783" gradientUnits="userSpaceOnUse">
<stop stop-color="#7ECEFF"/>
<stop offset="1" stop-color="white"/>
</linearGradient>
<linearGradient id="paint3_linear_0_48" x1="80.9304" y1="12.9391" x2="80.9304" y2="25.8783" gradientUnits="userSpaceOnUse">
<stop stop-color="white"/>
<stop offset="1" stop-color="#009EFF" stop-opacity="0.55"/>
</linearGradient>
<linearGradient id="paint4_linear_0_48" x1="102.765" y1="25.8783" x2="96.2956" y2="25.8783" gradientUnits="userSpaceOnUse">
<stop stop-color="#7ECEFF"/>
<stop offset="1" stop-color="white"/>
</linearGradient>
<linearGradient id="paint5_linear_0_48" x1="96.2956" y1="12.9391" x2="96.2956" y2="25.8783" gradientUnits="userSpaceOnUse">
<stop stop-color="white"/>
<stop offset="1" stop-color="#009EFF" stop-opacity="0.55"/>
</linearGradient>
<linearGradient id="paint6_linear_0_48" x1="87.3999" y1="76.0174" x2="80.9304" y2="76.0174" gradientUnits="userSpaceOnUse">
<stop stop-color="#7ECEFF"/>
<stop offset="1" stop-color="white"/>
</linearGradient>
<linearGradient id="paint7_linear_0_48" x1="80.9304" y1="63.0782" x2="80.9304" y2="76.0174" gradientUnits="userSpaceOnUse">
<stop stop-color="white"/>
<stop offset="1" stop-color="#009EFF" stop-opacity="0.55"/>
</linearGradient>
<linearGradient id="paint8_linear_0_48" x1="102.765" y1="76.0174" x2="96.2956" y2="76.0174" gradientUnits="userSpaceOnUse">
<stop stop-color="#7ECEFF"/>
<stop offset="1" stop-color="white"/>
</linearGradient>
<linearGradient id="paint9_linear_0_48" x1="96.2956" y1="63.0782" x2="96.2956" y2="76.0174" gradientUnits="userSpaceOnUse">
<stop stop-color="white"/>
<stop offset="1" stop-color="#009EFF" stop-opacity="0.55"/>
</linearGradient>
<linearGradient id="paint10_linear_0_48" x1="31" y1="113" x2="15.5" y2="113" gradientUnits="userSpaceOnUse">
<stop stop-color="#7ECEFF"/>
<stop offset="1" stop-color="white"/>
</linearGradient>
<linearGradient id="paint11_linear_0_48" x1="15.5" y1="63" x2="15.5" y2="113" gradientUnits="userSpaceOnUse">
<stop stop-color="#009EFF"/>
<stop offset="1" stop-color="white" stop-opacity="0.25"/>
</linearGradient>
</defs>
</svg>
